<svg xmlns="http://www.w3.org/2000/svg" version="1.1" xmlns:xlink="http://www.w3.org/1999/xlink" xmlns:svgjs="http://svgjs.dev/svgjs" width="1440" height="560" preserveAspectRatio="none" viewBox="0 0 1440 560"><g mask="url(&quot;#SvgjsMask1007&quot;)" fill="none"><path d="M875.851,394.394C904.114,395.217,933.005,383.757,946.627,358.98C959.863,334.904,951.423,306.205,937.285,282.648C923.645,259.919,902.342,240.099,875.851,241.045C850.509,241.95,833.983,264.666,821.574,286.78C809.517,308.265,800.78,333.057,811.875,355.054C823.958,379.011,849.03,393.613,875.851,394.394" fill="rgba(28, 142, 79, 0.4)" class="triangle-float3"></path><path d="M1077.683,330.594C1113.905,330.875,1134.148,292.571,1150.897,260.453C1165.983,231.525,1175.674,199.171,1161.557,169.758C1145.447,136.192,1114.915,107.738,1077.683,107.906C1040.663,108.073,1010.876,137.015,995.11,170.51C981.487,199.453,991.743,230.904,1006.407,259.334C1022.914,291.336,1041.676,330.315,1077.683,330.594" fill="rgba(28, 142, 79, 0.4)" class="triangle-float2"></path><path d="M785.974,523.711C836.568,527.993,895.955,521.359,920.091,476.687C943.648,433.087,910.113,384.765,883.701,342.833C859.765,304.831,830.856,265.411,785.974,263.759C738.845,262.024,696.592,293.252,674.938,335.148C654.883,373.949,663.991,419.25,686.154,456.886C707.93,493.867,743.211,520.091,785.974,523.711" fill="rgba(28, 142, 79, 0.4)" class="triangle-float1"></path><path d="M1336.699,562.933C1382.124,564.302,1428.938,544.677,1449.509,504.153C1468.739,466.27,1449.998,422.483,1425.675,387.651C1405.276,358.437,1372.328,342.258,1336.699,342.597C1301.706,342.93,1269.785,360.044,1250.606,389.316C1229.171,422.032,1217.708,462.648,1235.084,497.689C1254.25,536.34,1293.577,561.633,1336.699,562.933" fill="rgba(28, 142, 79, 0.4)" class="triangle-float3"></path><path d="M248.868,214.822C295.105,214.349,329.434,177.418,352.571,137.384C375.73,97.312,392.567,47.953,367.96,8.753C344.297,-28.943,293.363,-28.874,248.868,-27.816C206.923,-26.818,161.869,-21.112,139.202,14.195C115.004,51.886,119.941,100.242,141.424,139.544C163.905,180.671,202,215.302,248.868,214.822" fill="rgba(28, 142, 79, 0.4)" class="triangle-float1"></path><path d="M1324.8898067892394 356.64662468053035L1353.0770800215541 461.8429605103556 1430.0861426190647 328.4593514482155z" fill="rgba(28, 142, 79, 0.4)" class="triangle-float2"></path></g><defs><mask id="SvgjsMask1007"><rect width="1440" height="560" fill="#ffffff"></rect></mask><style>
                @keyframes float1 {
                    0%{transform: translate(0, 0)}
                    50%{transform: translate(-10px, 0)}
                    100%{transform: translate(0, 0)}
                }

                .triangle-float1 {
                    animation: float1 5s infinite;
                }

                @keyframes float2 {
                    0%{transform: translate(0, 0)}
                    50%{transform: translate(-5px, -5px)}
                    100%{transform: translate(0, 0)}
                }

                .triangle-float2 {
                    animation: float2 4s infinite;
                }

                @keyframes float3 {
                    0%{transform: translate(0, 0)}
                    50%{transform: translate(0, -10px)}
                    100%{transform: translate(0, 0)}
                }

                .triangle-float3 {
                    animation: float3 6s infinite;
                }
            </style></defs></svg>